<?xml version="1.0" encoding="UTF-8" standalone="no"?>
<!DOCTYPE svg PUBLIC "-//W3C//DTD SVG 1.1//EN" "http://www.w3.org/Graphics/SVG/1.1/DTD/svg11.dtd">
<svg width="100%" height="100%" viewBox="0 0 1280 800" version="1.1" xmlns="http://www.w3.org/2000/svg" xmlns:xlink="http://www.w3.org/1999/xlink" xml:space="preserve" xmlns:serif="http://www.serif.com/" style="fill-rule:evenodd;clip-rule:evenodd;stroke-linejoin:round;stroke-miterlimit:2;">
    <rect x="0" y="0" width="1280" height="800" style="fill:rgb(247,248,243);"/>
    <g transform="matrix(0.55657,0,0,0.55657,13.8718,-11.0909)">
        <g transform="matrix(0.163663,0.646346,-0.646346,0.163663,307.357,-48.3598)">
            <path d="M435,96C398.298,169.078 318.832,165.078 391.473,238C464.113,310.922 464.284,333.553 579.376,314.861C694.468,296.17 647.943,236.42 640,172.111C632.057,107.801 565.518,65.052 529,69.973C492.482,74.894 471.702,22.922 435,96Z" style="fill:rgb(250,230,171);"/>
        </g>
        <g transform="matrix(0.666745,0,0,0.666745,1.34101,-51.9856)">
            <path d="M83,69.973C52.199,120.284 13.05,125.56 40,212C66.95,298.44 100.553,235.404 149,276C197.447,316.596 266.27,304.695 292,221C317.73,137.305 236.213,139.262 193,98C149.787,56.738 113.801,19.662 83,69.973Z" style="fill:rgb(199,197,218);"/>
        </g>
        <g transform="matrix(0.666745,0,0,0.857564,-111.26,-108.838)">
            <path d="M54,400C77.163,357.447 121.489,277.376 185,335C248.511,392.624 274.142,306.241 347,350C419.858,393.759 390.213,455.433 350,508C309.787,560.567 279.972,469.092 178,491C76.028,512.908 30.837,442.553 54,400Z" style="fill:rgb(232,196,174);"/>
        </g>
        <g transform="matrix(0.666745,0,0,0.666745,-13.5503,449.078)">
            <path d="M358,69.973C402.637,17.021 461.066,-76.397 551,14C640.934,104.397 651.548,163.064 640,216C628.452,268.936 490.158,310.227 422,251C353.842,191.773 313.363,122.925 358,69.973Z" style="fill:rgb(169,200,195);"/>
        </g>
        <g transform="matrix(0.24299,0.808169,-0.808169,0.24299,515.252,50.3659)">
            <path d="M437,69.973C381.076,93.05 343.562,110.463 347,172.111C350.438,233.759 390.101,254.454 448,239C505.899,223.546 600.115,185.376 574,129C547.885,72.624 492.924,46.896 437,69.973Z" style="fill:rgb(80,117,169);"/>
        </g>
        <g transform="matrix(-0.616498,0.380545,-0.419467,-0.679554,431.523,613.952)">
            <path d="M391.473,79C467.317,44.255 516.569,27.248 564,101C611.431,174.752 689.137,292.369 530,292C370.863,291.631 419.028,242.865 391.473,210C363.918,177.135 315.628,113.745 391.473,79Z" style="fill:rgb(205,203,152);"/>
        </g>
        <g transform="matrix(0.666745,0,0,0.666745,19.5764,-116.555)">
            <path d="M695,116C617.105,145.248 599.31,275.776 667.782,292.214C736.254,308.653 887.363,350.539 885,253C882.637,155.461 847.704,148.255 809,132C770.296,115.745 772.895,86.752 695,116Z" style="fill:rgb(193,133,97);"/>
        </g>
        <g transform="matrix(0.666745,0,0,0.666745,51.0707,119.24)">
            <path d="M622,60.961C530.864,113.475 535.917,158.537 568,215.439C600.083,272.34 758.38,383.872 783.629,243C808.878,102.128 759.385,105.333 730,92C700.615,78.667 713.136,8.446 622,60.961Z" style="fill:rgb(218,179,124);"/>
        </g>
        <g transform="matrix(0.561708,0.359212,-0.359212,0.561708,95.9523,-179.205)">
            <path d="M487.712,61C409.445,62.411 348.536,178 391.473,249C434.41,320 546.583,292.284 600,246C653.417,199.716 611.548,159.702 579.376,128C547.204,96.298 565.979,59.589 487.712,61Z" style="fill:rgb(213,133,126);"/>
        </g>
        <g transform="matrix(0.666745,0,0,0.666745,-376.229,235.379)">
            <path d="M668.782,205C627.317,200.851 602.542,271.092 583.724,312C564.906,352.908 539.463,426.426 618,443C696.537,459.574 747.307,438.014 811,400C874.693,361.986 805.69,301.816 767,278C728.31,254.184 710.246,209.149 668.782,205Z" style="fill:rgb(94,126,123);"/>
        </g>
        <g transform="matrix(0.666745,0,0,0.666745,-356.065,595.502)">
            <path d="M984,103C900.793,100.993 855.562,114.733 843,221.338C830.438,327.943 904.725,326.276 989,341.861C1073.28,357.447 1069.7,300.922 1080,235C1090.3,169.078 1067.21,105.007 984,103Z" style="fill:rgb(114,132,94);"/>
        </g>
    </g>
    <g transform="matrix(-0.556556,-0.00394037,-0.00394037,0.556556,968.887,185.259)">
        <g transform="matrix(0.163663,0.646346,-0.646346,0.163663,307.357,-48.3598)">
            <path d="M435,96C398.298,169.078 318.832,165.078 391.473,238C464.113,310.922 464.284,333.553 579.376,314.861C694.468,296.17 647.943,236.42 640,172.111C632.057,107.801 565.518,65.052 529,69.973C492.482,74.894 471.702,22.922 435,96Z" style="fill:rgb(250,230,171);"/>
        </g>
        <g transform="matrix(0.666745,0,0,0.666745,1.34101,-51.9856)">
            <path d="M83,69.973C52.199,120.284 13.05,125.56 40,212C66.95,298.44 100.553,235.404 149,276C197.447,316.596 266.27,304.695 292,221C317.73,137.305 236.213,139.262 193,98C149.787,56.738 113.801,19.662 83,69.973Z" style="fill:rgb(199,197,218);"/>
        </g>
        <g transform="matrix(0.666745,0,0,0.857564,-111.26,-108.838)">
            <path d="M54,400C77.163,357.447 121.489,277.376 185,335C248.511,392.624 274.142,306.241 347,350C419.858,393.759 390.213,455.433 350,508C309.787,560.567 279.972,469.092 178,491C76.028,512.908 30.837,442.553 54,400Z" style="fill:rgb(232,196,174);"/>
        </g>
        <g transform="matrix(0.666745,0,0,0.666745,-13.5503,449.078)">
            <path d="M358,69.973C402.637,17.021 461.066,-76.397 551,14C640.934,104.397 651.548,163.064 640,216C628.452,268.936 490.158,310.227 422,251C353.842,191.773 313.363,122.925 358,69.973Z" style="fill:rgb(169,200,195);"/>
        </g>
        <g transform="matrix(0.24299,0.808169,-0.808169,0.24299,515.252,50.3659)">
            <path d="M437,69.973C381.076,93.05 343.562,110.463 347,172.111C350.438,233.759 390.101,254.454 448,239C505.899,223.546 600.115,185.376 574,129C547.885,72.624 492.924,46.896 437,69.973Z" style="fill:rgb(80,117,169);"/>
        </g>
        <g transform="matrix(-0.616498,0.380545,-0.419467,-0.679554,431.523,613.952)">
            <path d="M391.473,79C467.317,44.255 516.569,27.248 564,101C611.431,174.752 689.137,292.369 530,292C370.863,291.631 419.028,242.865 391.473,210C363.918,177.135 315.628,113.745 391.473,79Z" style="fill:rgb(205,203,152);"/>
        </g>
        <g transform="matrix(0.666745,0,0,0.666745,19.5764,-116.555)">
            <path d="M695,116C617.105,145.248 599.31,275.776 667.782,292.214C736.254,308.653 887.363,350.539 885,253C882.637,155.461 847.704,148.255 809,132C770.296,115.745 772.895,86.752 695,116Z" style="fill:rgb(193,133,97);"/>
        </g>
        <g transform="matrix(0.666745,0,0,0.666745,51.0707,119.24)">
            <path d="M622,60.961C530.864,113.475 535.917,158.537 568,215.439C600.083,272.34 758.38,383.872 783.629,243C808.878,102.128 759.385,105.333 730,92C700.615,78.667 713.136,8.446 622,60.961Z" style="fill:rgb(218,179,124);"/>
        </g>
        <g transform="matrix(0.561708,0.359212,-0.359212,0.561708,95.9523,-179.205)">
            <path d="M487.712,61C409.445,62.411 348.536,178 391.473,249C434.41,320 546.583,292.284 600,246C653.417,199.716 611.548,159.702 579.376,128C547.204,96.298 565.979,59.589 487.712,61Z" style="fill:rgb(213,133,126);"/>
        </g>
        <g transform="matrix(0.666745,0,0,0.666745,-376.229,235.379)">
            <path d="M668.782,205C627.317,200.851 602.542,271.092 583.724,312C564.906,352.908 539.463,426.426 618,443C696.537,459.574 747.307,438.014 811,400C874.693,361.986 805.69,301.816 767,278C728.31,254.184 710.246,209.149 668.782,205Z" style="fill:rgb(94,126,123);"/>
        </g>
        <g transform="matrix(0.666745,0,0,0.666745,-356.065,595.502)">
            <path d="M984,103C900.793,100.993 855.562,114.733 843,221.338C830.438,327.943 904.725,326.276 989,341.861C1073.28,357.447 1069.7,300.922 1080,235C1090.3,169.078 1067.21,105.007 984,103Z" style="fill:rgb(114,132,94);"/>
        </g>
    </g>
    <g transform="matrix(0.239617,-0.502348,0.502348,0.239617,-94.3819,749.255)">
        <g transform="matrix(0.163663,0.646346,-0.646346,0.163663,307.357,-48.3598)">
            <path d="M435,96C398.298,169.078 318.832,165.078 391.473,238C464.113,310.922 464.284,333.553 579.376,314.861C694.468,296.17 647.943,236.42 640,172.111C632.057,107.801 565.518,65.052 529,69.973C492.482,74.894 471.702,22.922 435,96Z" style="fill:rgb(250,230,171);"/>
        </g>
        <g transform="matrix(0.666745,0,0,0.666745,1.34101,-51.9856)">
            <path d="M83,69.973C52.199,120.284 13.05,125.56 40,212C66.95,298.44 100.553,235.404 149,276C197.447,316.596 266.27,304.695 292,221C317.73,137.305 236.213,139.262 193,98C149.787,56.738 113.801,19.662 83,69.973Z" style="fill:rgb(199,197,218);"/>
        </g>
        <g transform="matrix(0.666745,0,0,0.857564,-111.26,-108.838)">
            <path d="M54,400C77.163,357.447 121.489,277.376 185,335C248.511,392.624 274.142,306.241 347,350C419.858,393.759 390.213,455.433 350,508C309.787,560.567 279.972,469.092 178,491C76.028,512.908 30.837,442.553 54,400Z" style="fill:rgb(232,196,174);"/>
        </g>
        <g transform="matrix(0.666745,0,0,0.666745,-13.5503,449.078)">
            <path d="M358,69.973C402.637,17.021 461.066,-76.397 551,14C640.934,104.397 651.548,163.064 640,216C628.452,268.936 490.158,310.227 422,251C353.842,191.773 313.363,122.925 358,69.973Z" style="fill:rgb(169,200,195);"/>
        </g>
        <g transform="matrix(0.24299,0.808169,-0.808169,0.24299,515.252,50.3659)">
            <path d="M437,69.973C381.076,93.05 343.562,110.463 347,172.111C350.438,233.759 390.101,254.454 448,239C505.899,223.546 600.115,185.376 574,129C547.885,72.624 492.924,46.896 437,69.973Z" style="fill:rgb(80,117,169);"/>
        </g>
        <g transform="matrix(0.666745,0,0,0.666745,19.5764,-116.555)">
            <path d="M695,116C617.105,145.248 599.31,275.776 667.782,292.214C736.254,308.653 887.363,350.539 885,253C882.637,155.461 847.704,148.255 809,132C770.296,115.745 772.895,86.752 695,116Z" style="fill:rgb(193,133,97);"/>
        </g>
        <g transform="matrix(0.666745,0,0,0.666745,51.0707,119.24)">
            <path d="M622,60.961C530.864,113.475 535.917,158.537 568,215.439C600.083,272.34 758.38,383.872 783.629,243C808.878,102.128 759.385,105.333 730,92C700.615,78.667 713.136,8.446 622,60.961Z" style="fill:rgb(218,179,124);"/>
        </g>
        <g transform="matrix(0.561708,0.359212,-0.359212,0.561708,95.9523,-179.205)">
            <path d="M487.712,61C409.445,62.411 348.536,178 391.473,249C434.41,320 546.583,292.284 600,246C653.417,199.716 611.548,159.702 579.376,128C547.204,96.298 565.979,59.589 487.712,61Z" style="fill:rgb(213,133,126);"/>
        </g>
        <g transform="matrix(0.666745,0,0,0.666745,-376.229,235.379)">
            <path d="M668.782,205C627.317,200.851 602.542,271.092 583.724,312C564.906,352.908 539.463,426.426 618,443C696.537,459.574 747.307,438.014 811,400C874.693,361.986 805.69,301.816 767,278C728.31,254.184 710.246,209.149 668.782,205Z" style="fill:rgb(94,126,123);"/>
        </g>
        <g transform="matrix(0.666745,0,0,0.666745,-356.065,595.502)">
            <path d="M984,103C900.793,100.993 855.562,114.733 843,221.338C830.438,327.943 904.725,326.276 989,341.861C1073.28,357.447 1069.7,300.922 1080,235C1090.3,169.078 1067.21,105.007 984,103Z" style="fill:rgb(114,132,94);"/>
        </g>
    </g>
    <g transform="matrix(0.599637,0,0,0.599637,952.956,323.619)">
        <g transform="matrix(0.163663,0.646346,-0.646346,0.163663,362.38,320.46)">
            <path d="M435,96C398.298,169.078 318.832,165.078 391.473,238C464.113,310.922 464.284,333.553 579.376,314.861C694.468,296.17 647.943,236.42 640,172.111C632.057,107.801 565.518,65.052 529,69.973C492.482,74.894 471.702,22.922 435,96Z" style="fill:rgb(250,230,171);"/>
        </g>
        <g transform="matrix(0.297754,0.596567,-0.596567,0.297754,269.181,124.877)">
            <path d="M83,69.973C52.199,120.284 13.05,125.56 40,212C66.95,298.44 100.553,235.404 149,276C197.447,316.596 266.27,304.695 292,221C317.73,137.305 236.213,139.262 193,98C149.787,56.738 113.801,19.662 83,69.973Z" style="fill:rgb(199,197,218);"/>
        </g>
        <g transform="matrix(0.647343,0.159674,-0.205371,0.83261,265.327,96.1722)">
            <path d="M54,400C77.163,357.447 121.489,277.376 185,335C248.511,392.624 274.142,306.241 347,350C419.858,393.759 390.213,455.433 350,508C309.787,560.567 279.972,469.092 178,491C76.028,512.908 30.837,442.553 54,400Z" style="fill:rgb(232,196,174);"/>
        </g>
        <g transform="matrix(-0.643326,-0.17516,0.17516,-0.643326,851.903,446.958)">
            <path d="M358,69.973C402.637,17.021 461.066,-76.397 551,14C640.934,104.397 651.548,163.064 640,216C628.452,268.936 490.158,310.227 422,251C353.842,191.773 313.363,122.925 358,69.973Z" style="fill:rgb(169,200,195);"/>
        </g>
        <g transform="matrix(0.737326,-0.410525,0.410525,0.737326,104.439,821.673)">
            <path d="M437,69.973C381.076,93.05 343.562,110.463 347,172.111C350.438,233.759 390.101,254.454 448,239C505.899,223.546 600.115,185.376 574,129C547.885,72.624 492.924,46.896 437,69.973Z" style="fill:rgb(80,117,169);"/>
        </g>
        <g transform="matrix(-0.616498,0.380545,-0.419467,-0.679554,914.699,-32.5336)">
            <path d="M391.473,79C467.317,44.255 516.569,27.248 564,101C611.431,174.752 689.137,292.369 530,292C370.863,291.631 419.028,242.865 391.473,210C363.918,177.135 315.628,113.745 391.473,79Z" style="fill:rgb(205,203,152);"/>
        </g>
        <g transform="matrix(0.666745,0,0,0.666745,-139.208,-13.0155)">
            <path d="M695,116C617.105,145.248 599.31,275.776 667.782,292.214C736.254,308.653 887.363,350.539 885,253C882.637,155.461 847.704,148.255 809,132C770.296,115.745 772.895,86.752 695,116Z" style="fill:rgb(193,133,97);"/>
        </g>
        <g transform="matrix(-0.564812,0.354312,-0.354312,-0.564812,569.838,442.106)">
            <path d="M622,60.961C530.864,113.475 535.917,158.537 568,215.439C600.083,272.34 758.38,383.872 783.629,243C808.878,102.128 759.385,105.333 730,92C700.615,78.667 713.136,8.446 622,60.961Z" style="fill:rgb(218,179,124);"/>
        </g>
        <g transform="matrix(0.184366,-0.640748,0.640748,0.184366,171.376,582.935)">
            <path d="M487.712,61C409.445,62.411 348.536,178 391.473,249C434.41,320 546.583,292.284 600,246C653.417,199.716 611.548,159.702 579.376,128C547.204,96.298 565.979,59.589 487.712,61Z" style="fill:rgb(213,133,126);"/>
        </g>
        <g transform="matrix(0.666745,0,0,0.666745,-350.377,549.668)">
            <path d="M668.782,205C627.317,200.851 602.542,271.092 583.724,312C564.906,352.908 539.463,426.426 618,443C696.537,459.574 747.307,438.014 811,400C874.693,361.986 805.69,301.816 767,278C728.31,254.184 710.246,209.149 668.782,205Z" style="fill:rgb(94,126,123);"/>
        </g>
        <g transform="matrix(-0.611963,0.264671,-0.264671,-0.611963,1192.18,433.722)">
            <path d="M984,103C900.793,100.993 855.562,114.733 843,221.338C830.438,327.943 904.725,326.276 989,341.861C1073.28,357.447 1069.7,300.922 1080,235C1090.3,169.078 1067.21,105.007 984,103Z" style="fill:rgb(114,132,94);"/>
        </g>
    </g>
    <g transform="matrix(0.465132,-0.37844,0.37844,0.465132,749.621,1.60613)">
        <g transform="matrix(0.163663,0.646346,-0.646346,0.163663,362.38,320.46)">
            <path d="M435,96C398.298,169.078 318.832,165.078 391.473,238C464.113,310.922 464.284,333.553 579.376,314.861C694.468,296.17 647.943,236.42 640,172.111C632.057,107.801 565.518,65.052 529,69.973C492.482,74.894 471.702,22.922 435,96Z" style="fill:rgb(250,230,171);"/>
        </g>
        <g transform="matrix(0.297754,0.596567,-0.596567,0.297754,269.181,124.877)">
            <path d="M83,69.973C52.199,120.284 13.05,125.56 40,212C66.95,298.44 100.553,235.404 149,276C197.447,316.596 266.27,304.695 292,221C317.73,137.305 236.213,139.262 193,98C149.787,56.738 113.801,19.662 83,69.973Z" style="fill:rgb(199,197,218);"/>
        </g>
        <g transform="matrix(0.647343,0.159674,-0.205371,0.83261,265.327,96.1722)">
            <path d="M54,400C77.163,357.447 121.489,277.376 185,335C248.511,392.624 274.142,306.241 347,350C419.858,393.759 390.213,455.433 350,508C309.787,560.567 279.972,469.092 178,491C76.028,512.908 30.837,442.553 54,400Z" style="fill:rgb(232,196,174);"/>
        </g>
        <g transform="matrix(-0.643326,-0.17516,0.17516,-0.643326,851.903,446.958)">
            <path d="M358,69.973C402.637,17.021 461.066,-76.397 551,14C640.934,104.397 651.548,163.064 640,216C628.452,268.936 490.158,310.227 422,251C353.842,191.773 313.363,122.925 358,69.973Z" style="fill:rgb(169,200,195);"/>
        </g>
        <g transform="matrix(0.737326,-0.410525,0.410525,0.737326,104.439,821.673)">
            <path d="M437,69.973C381.076,93.05 343.562,110.463 347,172.111C350.438,233.759 390.101,254.454 448,239C505.899,223.546 600.115,185.376 574,129C547.885,72.624 492.924,46.896 437,69.973Z" style="fill:rgb(80,117,169);"/>
        </g>
        <g transform="matrix(-0.564812,0.354312,-0.354312,-0.564812,569.838,442.106)">
            <path d="M622,60.961C530.864,113.475 535.917,158.537 568,215.439C600.083,272.34 758.38,383.872 783.629,243C808.878,102.128 759.385,105.333 730,92C700.615,78.667 713.136,8.446 622,60.961Z" style="fill:rgb(218,179,124);"/>
        </g>
        <g transform="matrix(0.184366,-0.640748,0.640748,0.184366,171.376,582.935)">
            <path d="M487.712,61C409.445,62.411 348.536,178 391.473,249C434.41,320 546.583,292.284 600,246C653.417,199.716 611.548,159.702 579.376,128C547.204,96.298 565.979,59.589 487.712,61Z" style="fill:rgb(213,133,126);"/>
        </g>
        <g transform="matrix(0.666745,0,0,0.666745,-350.377,549.668)">
            <path d="M668.782,205C627.317,200.851 602.542,271.092 583.724,312C564.906,352.908 539.463,426.426 618,443C696.537,459.574 747.307,438.014 811,400C874.693,361.986 805.69,301.816 767,278C728.31,254.184 710.246,209.149 668.782,205Z" style="fill:rgb(94,126,123);"/>
        </g>
        <g transform="matrix(-0.611963,0.264671,-0.264671,-0.611963,1192.18,433.722)">
            <path d="M984,103C900.793,100.993 855.562,114.733 843,221.338C830.438,327.943 904.725,326.276 989,341.861C1073.28,357.447 1069.7,300.922 1080,235C1090.3,169.078 1067.21,105.007 984,103Z" style="fill:rgb(114,132,94);"/>
        </g>
    </g>
    <g transform="matrix(0.465132,-0.37844,0.37844,0.465132,158.702,482.606)">
        <g transform="matrix(0.163663,0.646346,-0.646346,0.163663,362.38,320.46)">
            <path d="M435,96C398.298,169.078 318.832,165.078 391.473,238C464.113,310.922 464.284,333.553 579.376,314.861C694.468,296.17 647.943,236.42 640,172.111C632.057,107.801 565.518,65.052 529,69.973C492.482,74.894 471.702,22.922 435,96Z" style="fill:rgb(250,230,171);"/>
        </g>
        <g transform="matrix(0.297754,0.596567,-0.596567,0.297754,269.181,124.877)">
            <path d="M83,69.973C52.199,120.284 13.05,125.56 40,212C66.95,298.44 100.553,235.404 149,276C197.447,316.596 266.27,304.695 292,221C317.73,137.305 236.213,139.262 193,98C149.787,56.738 113.801,19.662 83,69.973Z" style="fill:rgb(199,197,218);"/>
        </g>
        <g transform="matrix(0.647343,0.159674,-0.205371,0.83261,265.327,96.1722)">
            <path d="M54,400C77.163,357.447 121.489,277.376 185,335C248.511,392.624 274.142,306.241 347,350C419.858,393.759 390.213,455.433 350,508C309.787,560.567 279.972,469.092 178,491C76.028,512.908 30.837,442.553 54,400Z" style="fill:rgb(232,196,174);"/>
        </g>
        <g transform="matrix(-0.643326,-0.17516,0.17516,-0.643326,851.903,446.958)">
            <path d="M358,69.973C402.637,17.021 461.066,-76.397 551,14C640.934,104.397 651.548,163.064 640,216C628.452,268.936 490.158,310.227 422,251C353.842,191.773 313.363,122.925 358,69.973Z" style="fill:rgb(169,200,195);"/>
        </g>
        <g transform="matrix(0.737326,-0.410525,0.410525,0.737326,104.439,821.673)">
            <path d="M437,69.973C381.076,93.05 343.562,110.463 347,172.111C350.438,233.759 390.101,254.454 448,239C505.899,223.546 600.115,185.376 574,129C547.885,72.624 492.924,46.896 437,69.973Z" style="fill:rgb(80,117,169);"/>
        </g>
        <g transform="matrix(-0.616498,0.380545,-0.419467,-0.679554,914.699,-32.5336)">
            <path d="M391.473,79C467.317,44.255 516.569,27.248 564,101C611.431,174.752 689.137,292.369 530,292C370.863,291.631 419.028,242.865 391.473,210C363.918,177.135 315.628,113.745 391.473,79Z" style="fill:rgb(205,203,152);"/>
        </g>
        <g transform="matrix(0.666745,0,0,0.666745,-139.208,-13.0155)">
            <path d="M695,116C617.105,145.248 599.31,275.776 667.782,292.214C736.254,308.653 887.363,350.539 885,253C882.637,155.461 847.704,148.255 809,132C770.296,115.745 772.895,86.752 695,116Z" style="fill:rgb(193,133,97);"/>
        </g>
        <g transform="matrix(-0.564812,0.354312,-0.354312,-0.564812,569.838,442.106)">
            <path d="M622,60.961C530.864,113.475 535.917,158.537 568,215.439C600.083,272.34 758.38,383.872 783.629,243C808.878,102.128 759.385,105.333 730,92C700.615,78.667 713.136,8.446 622,60.961Z" style="fill:rgb(218,179,124);"/>
        </g>
        <g transform="matrix(0.184366,-0.640748,0.640748,0.184366,171.376,582.935)">
            <path d="M487.712,61C409.445,62.411 348.536,178 391.473,249C434.41,320 546.583,292.284 600,246C653.417,199.716 611.548,159.702 579.376,128C547.204,96.298 565.979,59.589 487.712,61Z" style="fill:rgb(213,133,126);"/>
        </g>
        <g transform="matrix(0.666745,0,0,0.666745,-350.377,549.668)">
            <path d="M668.782,205C627.317,200.851 602.542,271.092 583.724,312C564.906,352.908 539.463,426.426 618,443C696.537,459.574 747.307,438.014 811,400C874.693,361.986 805.69,301.816 767,278C728.31,254.184 710.246,209.149 668.782,205Z" style="fill:rgb(94,126,123);"/>
        </g>
        <g transform="matrix(-0.611963,0.264671,-0.264671,-0.611963,1192.18,433.722)">
            <path d="M984,103C900.793,100.993 855.562,114.733 843,221.338C830.438,327.943 904.725,326.276 989,341.861C1073.28,357.447 1069.7,300.922 1080,235C1090.3,169.078 1067.21,105.007 984,103Z" style="fill:rgb(114,132,94);"/>
        </g>
    </g>
</svg>
